<svg data-v-423bf9ae="" xmlns="http://www.w3.org/2000/svg" viewBox="0 0 418.54399669212887 60" class="font"><!----><!----><!----><g data-v-423bf9ae="" id="dc2120f6-63d5-4842-82ab-36b1d1f71a5e" fill="white" transform="matrix(6.066734313964844,0,0,6.066734313964844,-6.794726371765137,-20.32356071472168)"><path d="M3.30 13.05L1.12 13.05L1.12 3.35L7.62 3.35L7.62 5.18L3.30 5.18L3.30 7.21L7.14 7.21L7.14 9.04L3.30 9.04L3.30 13.05ZM8.67 9.42L8.67 9.42L8.67 9.42Q8.67 8.44 8.97 7.71L8.97 7.71L8.97 7.71Q9.27 6.97 9.76 6.48L9.76 6.48L9.76 6.48Q10.25 5.99 10.88 5.74L10.88 5.74L10.88 5.74Q11.52 5.49 12.19 5.49L12.19 5.49L12.19 5.49Q13.76 5.49 14.67 6.45L14.67 6.45L14.67 6.45Q15.58 7.41 15.58 9.27L15.58 9.27L15.58 9.27Q15.58 9.45 15.57 9.67L15.57 9.67L15.57 9.67Q15.55 9.88 15.54 10.05L15.54 10.05L10.81 10.05L10.81 10.05Q10.88 10.70 11.41 11.07L11.41 11.07L11.41 11.07Q11.94 11.45 12.84 11.45L12.84 11.45L12.84 11.45Q13.41 11.45 13.96 11.35L13.96 11.35L13.96 11.35Q14.52 11.24 14.87 11.09L14.87 11.09L15.15 12.78L15.15 12.78Q14.98 12.87 14.70 12.95L14.70 12.95L14.70 12.95Q14.42 13.03 14.08 13.10L14.08 13.10L14.08 13.10Q13.73 13.16 13.34 13.20L13.34 13.20L13.34 13.20Q12.95 13.24 12.56 13.24L12.56 13.24L12.56 13.24Q11.56 13.24 10.83 12.95L10.83 12.95L10.83 12.95Q10.09 12.66 9.61 12.14L9.61 12.14L9.61 12.14Q9.13 11.63 8.90 10.93L8.90 10.93L8.90 10.93Q8.67 10.23 8.67 9.42ZM10.81 8.62L13.57 8.62L13.57 8.62Q13.55 8.36 13.47 8.11L13.47 8.11L13.47 8.11Q13.40 7.85 13.24 7.66L13.24 7.66L13.24 7.66Q13.08 7.46 12.83 7.34L12.83 7.34L12.83 7.34Q12.59 7.21 12.22 7.21L12.22 7.21L12.22 7.21Q11.87 7.21 11.62 7.33L11.62 7.33L11.62 7.33Q11.37 7.45 11.20 7.64L11.20 7.64L11.20 7.64Q11.03 7.84 10.94 8.10L10.94 8.10L10.94 8.10Q10.85 8.36 10.81 8.62L10.81 8.62ZM21.98 5.81L21.63 7.53L21.63 7.53Q21.35 7.46 20.97 7.38L20.97 7.38L20.97 7.38Q20.59 7.31 20.16 7.31L20.16 7.31L20.16 7.31Q19.96 7.31 19.69 7.34L19.69 7.34L19.69 7.34Q19.42 7.38 19.28 7.42L19.28 7.42L19.28 13.05L17.19 13.05L17.19 6.08L17.19 6.08Q17.75 5.88 18.52 5.71L18.52 5.71L18.52 5.71Q19.28 5.53 20.22 5.53L20.22 5.53L20.22 5.53Q20.38 5.53 20.62 5.55L20.62 5.55L20.62 5.55Q20.86 5.57 21.10 5.61L21.10 5.61L21.10 5.61Q21.34 5.64 21.57 5.69L21.57 5.69L21.57 5.69Q21.81 5.74 21.98 5.81L21.98 5.81ZM27.89 5.81L27.54 7.53L27.54 7.53Q27.26 7.46 26.88 7.38L26.88 7.38L26.88 7.38Q26.50 7.31 26.07 7.31L26.07 7.31L26.07 7.31Q25.87 7.31 25.60 7.34L25.60 7.34L25.60 7.34Q25.33 7.38 25.19 7.42L25.19 7.42L25.19 13.05L23.10 13.05L23.10 6.08L23.10 6.08Q23.66 5.88 24.42 5.71L24.42 5.71L24.42 5.71Q25.19 5.53 26.12 5.53L26.12 5.53L26.12 5.53Q26.29 5.53 26.53 5.55L26.53 5.55L26.53 5.55Q26.77 5.57 27.01 5.61L27.01 5.61L27.01 5.61Q27.24 5.64 27.48 5.69L27.48 5.69L27.48 5.69Q27.72 5.74 27.89 5.81L27.89 5.81ZM35.29 5.68L35.29 12.80L35.29 12.80Q34.76 12.95 33.92 13.08L33.92 13.08L33.92 13.08Q33.08 13.22 32.16 13.22L32.16 13.22L32.16 13.22Q31.22 13.22 30.60 12.96L30.60 12.96L30.60 12.96Q29.97 12.71 29.61 12.26L29.61 12.26L29.61 12.26Q29.25 11.80 29.09 11.17L29.09 11.17L29.09 11.17Q28.94 10.54 28.94 9.79L28.94 9.79L28.94 5.68L31.02 5.68L31.02 9.53L31.02 9.53Q31.02 10.54 31.29 10.99L31.29 10.99L31.29 10.99Q31.56 11.44 32.28 11.44L32.28 11.44L32.28 11.44Q32.51 11.44 32.76 11.42L32.76 11.42L32.76 11.42Q33.01 11.40 33.21 11.37L33.21 11.37L33.21 5.68L35.29 5.68ZM41.30 13.05L41.30 9.14L41.30 9.14Q41.30 8.13 41.04 7.71L41.04 7.71L41.04 7.71Q40.78 7.29 40.15 7.29L40.15 7.29L40.15 7.29Q39.96 7.29 39.75 7.31L39.75 7.31L39.75 7.31Q39.54 7.34 39.34 7.36L39.34 7.36L39.34 13.05L37.25 13.05L37.25 5.94L37.25 5.94Q37.52 5.87 37.88 5.79L37.88 5.79L37.88 5.79Q38.23 5.71 38.63 5.65L38.63 5.65L38.63 5.65Q39.03 5.59 39.45 5.55L39.45 5.55L39.45 5.55Q39.87 5.52 40.28 5.52L40.28 5.52L40.28 5.52Q41.08 5.52 41.57 5.72L41.57 5.72L41.57 5.72Q42.07 5.92 42.39 6.20L42.39 6.20L42.39 6.20Q42.84 5.88 43.42 5.70L43.42 5.70L43.42 5.70Q44.00 5.52 44.49 5.52L44.49 5.52L44.49 5.52Q45.37 5.52 45.94 5.76L45.94 5.76L45.94 5.76Q46.51 6.01 46.84 6.45L46.84 6.45L46.84 6.45Q47.18 6.90 47.31 7.52L47.31 7.52L47.31 7.52Q47.43 8.13 47.43 8.89L47.43 8.89L47.43 13.05L45.35 13.05L45.35 9.14L45.35 9.14Q45.35 8.13 45.09 7.71L45.09 7.71L45.09 7.71Q44.83 7.29 44.20 7.29L44.20 7.29L44.20 7.29Q44.03 7.29 43.73 7.38L43.73 7.38L43.73 7.38Q43.43 7.46 43.23 7.59L43.23 7.59L43.23 7.59Q43.33 7.91 43.36 8.27L43.36 8.27L43.36 8.27Q43.39 8.62 43.39 9.03L43.39 9.03L43.39 13.05L41.30 13.05ZM51.65 13.05L49.46 13.05L49.46 3.35L55.96 3.35L55.96 5.18L51.65 5.18L51.65 7.21L55.48 7.21L55.48 9.04L51.65 9.04L51.65 13.05ZM57.50 13.05L57.50 3.35L59.68 3.35L59.68 13.05L57.50 13.05ZM70.11 13.05L67.49 13.05L67.49 13.05Q67.09 12.24 66.61 11.40L66.61 11.40L66.61 11.40Q66.12 10.57 65.49 9.70L65.49 9.70L65.49 9.70Q65.30 9.95 65.00 10.40L65.00 10.40L65.00 10.40Q64.69 10.85 64.39 11.35L64.39 11.35L64.39 11.35Q64.09 11.86 63.83 12.32L63.83 12.32L63.83 12.32Q63.56 12.78 63.43 13.05L63.43 13.05L60.94 13.05L60.94 13.05Q61.56 11.91 62.38 10.67L62.38 10.67L62.38 10.67Q63.20 9.42 64.20 8.02L64.20 8.02L61.08 3.35L63.73 3.35L65.62 6.37L67.47 3.35L69.96 3.35L66.88 8.05L66.88 8.05Q68.05 9.58 68.85 10.87L68.85 10.87L68.85 10.87Q69.65 12.17 70.11 13.05L70.11 13.05Z"></path></g><!----><!----></svg>